<?xml version="1.0" standalone="no"?>
<!DOCTYPE svg PUBLIC "-//W3C//DTD SVG 20010904//EN"
 "http://www.w3.org/TR/2001/REC-SVG-20010904/DTD/svg10.dtd">
<svg version="1.0" xmlns="http://www.w3.org/2000/svg"
 width="400.000000pt" height="400.000000pt" viewBox="0 0 400.000000 400.000000"
 preserveAspectRatio="xMidYMid meet">
<metadata>
Created by potrace 1.16, written by Peter Selinger 2001-2019
</metadata>
<g transform="translate(0.000000,400.000000) scale(0.100000,-0.100000)"
fill="#000000" stroke="none">
<path d="M1986 3474 c-100 -18 -236 -63 -323 -108 -37 -19 -286 -160 -552
-314 -315 -182 -489 -288 -497 -303 -33 -59 -34 -57 400 -808 227 -394 419
-727 427 -741 11 -19 15 -100 19 -360 5 -303 7 -335 22 -338 18 -3 1299 730
1408 806 229 161 401 410 477 692 34 129 43 363 19 494 -97 512 -477 893 -980
981 -109 19 -313 18 -420 -1z m353 -805 c109 -37 196 -127 242 -248 17 -46 20
-72 17 -147 -3 -78 -9 -101 -36 -156 -46 -95 -110 -149 -307 -261 -94 -53
-178 -97 -187 -97 -25 0 -51 39 -233 357 -134 233 -166 297 -161 317 5 19 40
44 153 109 82 46 172 96 200 111 95 47 202 53 312 15z"/>
</g>
</svg>
